<?xml version="1.0" encoding="utf-8"?>
<!-- Generator: Adobe Illustrator 24.0.3, SVG Export Plug-In . SVG Version: 6.00 Build 0)  -->
<svg version="1.1" xmlns="http://www.w3.org/2000/svg" xmlns:xlink="http://www.w3.org/1999/xlink" x="0px" y="0px"
	 viewBox="0 0 18 17" style="enable-background:new 0 0 18 17;" xml:space="preserve">
<style type="text/css">
	.st0{display:none;}
	.st1{display:inline;fill:none;stroke:#21242E;stroke-width:1.5;stroke-linecap:round;stroke-linejoin:round;}
	.st2{display:inline;fill:none;stroke:#21242E;stroke-width:1.5;}
	.st3{fill:none;stroke:#D0BC7A;stroke-width:1.5;stroke-linecap:round;stroke-linejoin:round;}
	.st4{fill:none;stroke:#D0BC7A;stroke-width:1.5;}
</style>
<g id="Layer_1" class="st0">
	<path class="st1" d="M8.1,11.5l3-3l-3-3"/>
	<path class="st2" d="M8.8,1.2L8.8,1.2c4,0,7.2,3.2,7.2,7.2l0,0c0,4-3.2,7.2-7.2,7.2l0,0c-4,0-7.2-3.2-7.2-7.2l0,0
		C1.6,4.5,4.8,1.2,8.8,1.2z"/>
</g>
<g id="Layer_2">
	<path class="st3" d="M8.1,11.5l3-3l-3-3"/>
	<path class="st4" d="M8.8,1.2L8.8,1.2c4,0,7.2,3.2,7.2,7.2l0,0c0,4-3.2,7.2-7.2,7.2l0,0c-4,0-7.2-3.2-7.2-7.2l0,0
		C1.6,4.5,4.8,1.2,8.8,1.2z"/>
</g>
</svg>
