<?xml version="1.0" encoding="utf-8"?>
<!-- Generator: Adobe Illustrator 24.0.3, SVG Export Plug-In . SVG Version: 6.00 Build 0)  -->
<svg version="1.1" xmlns="http://www.w3.org/2000/svg" xmlns:xlink="http://www.w3.org/1999/xlink" x="0px" y="0px"
	 viewBox="0 0 16 17" style="enable-background:new 0 0 16 17;" xml:space="preserve">
<style type="text/css">
	.st0{display:none;}
	.st1{display:inline;fill:#D0BC7A;}
	.st2{fill:#D0BC7A;}
</style>
<g id="Layer_1" class="st0">
	<path class="st1" d="M5.8,7.4c0.7,1.3,1.8,2.3,3.1,3.1l0.7-1C9.7,9.4,9.8,9.3,10,9.3c0.2,0,0.4,0,0.5,0.1c1.1,0.6,2.3,1,3.6,1.1
		c0.2,0,0.4,0.1,0.5,0.2c0.1,0.1,0.2,0.3,0.2,0.5v3.5c0,0.2-0.1,0.4-0.2,0.5c-0.1,0.1-0.3,0.2-0.5,0.3c-0.4,0-0.8,0.1-1.2,0.1
		c-6.7,0-12.1-5.4-12.1-12.1c0-0.4,0-0.8,0.1-1.2C0.9,2,1,1.8,1.1,1.7c0.1-0.1,0.3-0.2,0.5-0.2h3.5c0.2,0,0.4,0.1,0.5,0.2
		C5.8,1.8,5.9,2,5.9,2.2C6,3.4,6.4,4.7,7,5.8c0.1,0.2,0.1,0.4,0.1,0.5c0,0.2-0.2,0.3-0.3,0.5L5.8,7.4z M3.8,6.9l1.5-1.1
		C4.9,5,4.6,4,4.4,3H2.4c0,0.1,0,0.3,0,0.4c0,5.8,4.7,10.5,10.5,10.5c0.1,0,0.3,0,0.4,0v-2.1c-1-0.1-1.9-0.4-2.9-0.9l-1.1,1.5
		c-0.4-0.2-0.8-0.4-1.2-0.6l0,0C6.6,11,5.3,9.7,4.4,8.2l0,0C4.2,7.8,4,7.4,3.8,6.9z"/>
</g>
<g id="Layer_2" class="st0">
	<path class="st1" d="M1.8,2.5h12c0.2,0,0.3,0.1,0.5,0.2c0.1,0.1,0.2,0.3,0.2,0.5v10.7c0,0.2-0.1,0.3-0.2,0.5
		c-0.1,0.1-0.3,0.2-0.5,0.2h-12c-0.2,0-0.3-0.1-0.5-0.2c-0.1-0.1-0.2-0.3-0.2-0.5V3.1c0-0.2,0.1-0.3,0.2-0.5
		C1.5,2.5,1.7,2.5,1.8,2.5z M13.2,5.3L7.9,10L2.5,5.3v7.9h10.7V5.3z M2.8,3.8l5,4.4l5-4.4H2.8z"/>
</g>
<g id="Layer_3" class="st0">
	<path class="st1" d="M7.8,1.5c-3.9,0-7,3.1-7,7s3.1,7,7,7s7-3.1,7-7S11.7,1.5,7.8,1.5z M7.8,14.1c-3.1,0-5.6-2.5-5.6-5.6
		s2.5-5.6,5.6-5.6s5.6,2.5,5.6,5.6S10.9,14.1,7.8,14.1z"/>
	<path class="st1" d="M8,5.3H6.7v3.4l2.1,2.1l0.9-0.9L8,8.2V5.3z"/>
</g>
<g id="Layer_4">
	<path class="st2" d="M7.8,9.8c1.5,0,2.7-1.2,2.7-2.7c0-1.5-1.2-2.7-2.7-2.7S5.2,5.7,5.2,7.1C5.2,8.6,6.4,9.8,7.8,9.8z M7.8,5.8
		c0.7,0,1.3,0.6,1.3,1.3c0,0.7-0.6,1.3-1.3,1.3c-0.7,0-1.3-0.6-1.3-1.3C6.5,6.4,7.1,5.8,7.8,5.8z"/>
	<path class="st2" d="M7.4,15c0.1,0.1,0.3,0.1,0.4,0.1c0.1,0,0.3,0,0.4-0.1c0.2-0.1,5-3.6,4.9-7.9c0-2.9-2.4-5.3-5.3-5.3
		c-2.9,0-5.3,2.4-5.3,5.3C2.5,11.4,7.2,14.9,7.4,15z M7.8,3.1c2.2,0,4,1.8,4,4c0,3-2.9,5.6-4,6.5c-1.1-0.9-4-3.5-4-6.5
		C3.8,4.9,5.6,3.1,7.8,3.1z"/>
	<path class="st2" d="M7.8,9.8c1.5,0,2.7-1.2,2.7-2.7c0-1.5-1.2-2.7-2.7-2.7S5.2,5.7,5.2,7.1C5.2,8.6,6.4,9.8,7.8,9.8z M7.8,5.8
		c0.7,0,1.3,0.6,1.3,1.3c0,0.7-0.6,1.3-1.3,1.3c-0.7,0-1.3-0.6-1.3-1.3C6.5,6.4,7.1,5.8,7.8,5.8z"/>
	<path class="st2" d="M7.4,15c0.1,0.1,0.3,0.1,0.4,0.1c0.1,0,0.3,0,0.4-0.1c0.2-0.1,5-3.6,4.9-7.9c0-2.9-2.4-5.3-5.3-5.3
		c-2.9,0-5.3,2.4-5.3,5.3C2.5,11.4,7.2,14.9,7.4,15z M7.8,3.1c2.2,0,4,1.8,4,4c0,3-2.9,5.6-4,6.5c-1.1-0.9-4-3.5-4-6.5
		C3.8,4.9,5.6,3.1,7.8,3.1z"/>
</g>
</svg>
