<?xml version="1.0" encoding="utf-8"?>
<!-- Generator: Adobe Illustrator 24.0.3, SVG Export Plug-In . SVG Version: 6.00 Build 0)  -->
<svg version="1.1" id="Layer_1" xmlns="http://www.w3.org/2000/svg" xmlns:xlink="http://www.w3.org/1999/xlink" x="0px" y="0px"
	 viewBox="0 0 22 19" style="enable-background:new 0 0 22 19;" xml:space="preserve">
<style type="text/css">
	.st0{fill:#E4E4E4;}
	.st1{display:none;fill:#21242E;fill-opacity:0.4;}
	.st2{display:none;fill:#D0BC7A;}
</style>
<path class="st0" d="M15.7,0.6c-1.7,0-3.3,0.8-4.4,2.3C11.1,3,11,3.2,10.8,3.4c-0.1-0.2-0.3-0.4-0.4-0.6C9.3,1.4,7.7,0.6,6,0.6
	c-3.3,0-5.7,2.8-5.7,6.1c0,3.8,3.1,7.4,10.1,11.6c0.1,0.1,0.3,0.1,0.4,0.1s0.3,0,0.4-0.1c7-4.2,10.1-7.8,10.1-11.6
	C21.3,3.3,19,0.6,15.7,0.6z"/>
<path class="st1" d="M15.7,0.6c-1.7,0-3.3,0.8-4.4,2.3C11.1,3,11,3.2,10.8,3.4c-0.1-0.2-0.3-0.4-0.4-0.6C9.3,1.4,7.7,0.6,6,0.6
	c-3.3,0-5.7,2.8-5.7,6.1c0,3.8,3.1,7.4,10.1,11.6c0.1,0.1,0.3,0.1,0.4,0.1s0.3,0,0.4-0.1c7-4.2,10.1-7.8,10.1-11.6
	C21.3,3.3,19,0.6,15.7,0.6z"/>
<path class="st2" d="M15.7,0.6c-1.7,0-3.3,0.8-4.4,2.3C11.1,3,11,3.2,10.8,3.4c-0.1-0.2-0.3-0.4-0.4-0.6C9.3,1.4,7.7,0.6,6,0.6
	c-3.3,0-5.7,2.8-5.7,6.1c0,3.8,3.1,7.4,10.1,11.6c0.1,0.1,0.3,0.1,0.4,0.1s0.3,0,0.4-0.1c7-4.2,10.1-7.8,10.1-11.6
	C21.3,3.3,19,0.6,15.7,0.6z"/>
</svg>
