<?xml version="1.0" encoding="utf-8"?>
<!-- Generator: Adobe Illustrator 24.0.3, SVG Export Plug-In . SVG Version: 6.00 Build 0)  -->
<svg version="1.1" xmlns="http://www.w3.org/2000/svg" xmlns:xlink="http://www.w3.org/1999/xlink" x="0px" y="0px"
	 viewBox="0 0 81 16" style="enable-background:new 0 0 81 16;" xml:space="preserve">
<style type="text/css">
	.st0{fill-rule:evenodd;clip-rule:evenodd;fill:#D0BC7A;}
	.st1{display:none;}
	.st2{display:inline;fill-rule:evenodd;clip-rule:evenodd;fill:#D0BC7A;}
</style>
<g id="Layer_1">
	<path class="st0" d="M71,0.9h2.8c4.1,0,7.1,3,7.1,7c0,4-3,7-7.1,7H71c-4.1,0-7.1-3-7.1-7S66.9,0.9,71,0.9z M71,12.8h2.8
		c2.8,0,4.9-2.1,4.9-4.9c0-2.8-2.1-4.9-4.9-4.9H71c-2.8,0-4.9,2.1-4.9,4.9C66.1,10.7,68.2,12.8,71,12.8z M14.7,9.7
		c-0.6,1.9-2.2,3.1-4.3,3.1H7.6c-2.7,0-4.7-2-4.7-4.8c0-2.8,2-4.8,4.7-4.8h2.8c2,0,3.6,1.1,4.2,2.9h2.2c-0.7-3-3.3-5-6.5-5H7.6
		c-4,0-7,3-7,7c0,4,3,7,7,7h2.8c3.3,0,5.8-2,6.5-5.2L14.7,9.7z M21.5,12.5V8.8h7.9v-2h-7.9V3.2h8.4V1.1H19.3v13.5h10.9v-2.1H21.5z
		 M32.8,1.1h7.6c4,0,6.9,2.8,6.9,6.7c0,3.9-2.9,6.7-6.9,6.7h-7.6V1.1z M35,12.6h5.3c2.7,0,4.7-2,4.7-4.7c0-2.7-1.9-4.7-4.7-4.7H35
		V12.6z M59.2,9.3c0.8-0.3,1.5-0.8,2-1.5C61.7,7.1,62,6.3,62,5.4c0-2.5-1.9-4.3-4.5-4.3h-8.1v13.5h2.2v-5H57l2.9,5h2.5L59.2,9.3z
		 M57.3,7.6h-5.7V3.2h5.7c1.5,0,2.4,0.9,2.4,2.2C59.7,6.6,58.8,7.6,57.3,7.6z"/>
</g>
<g id="Layer_2" class="st1">
	<path class="st2" d="M71,0.9h2.8c4.1,0,7.1,3,7.1,7c0,4-3,7-7.1,7H71c-4.1,0-7.1-3-7.1-7S66.9,0.9,71,0.9z M71,12.8h2.8
		c2.8,0,4.9-2.1,4.9-4.9c0-2.8-2.1-4.9-4.9-4.9H71c-2.8,0-4.9,2.1-4.9,4.9C66.1,10.7,68.2,12.8,71,12.8z M14.7,9.7
		c-0.6,1.9-2.2,3.1-4.3,3.1H7.6c-2.7,0-4.7-2-4.7-4.8c0-2.8,2-4.8,4.7-4.8h2.8c2,0,3.6,1.1,4.2,2.9h2.2c-0.7-3-3.3-5-6.5-5H7.6
		c-4,0-7,3-7,7c0,4,3,7,7,7h2.8c3.3,0,5.8-2,6.5-5.2L14.7,9.7z M21.5,12.5V8.8h7.9v-2h-7.9V3.2h8.4V1.1H19.3v13.5h10.9v-2.1H21.5z
		 M32.8,1.1h7.6c4,0,6.9,2.8,6.9,6.7c0,3.9-2.9,6.7-6.9,6.7h-7.6V1.1z M35,12.6h5.3c2.7,0,4.7-2,4.7-4.7c0-2.7-1.9-4.7-4.7-4.7H35
		V12.6z M59.2,9.3c0.8-0.3,1.5-0.8,2-1.5C61.7,7.1,62,6.3,62,5.4c0-2.5-1.9-4.3-4.5-4.3h-8.1v13.5h2.2v-5H57l2.9,5h2.5L59.2,9.3z
		 M57.3,7.6h-5.7V3.2h5.7c1.5,0,2.4,0.9,2.4,2.2C59.7,6.6,58.8,7.6,57.3,7.6z"/>
</g>
</svg>
