<?xml version="1.0" encoding="utf-8"?>
<!-- Generator: Adobe Illustrator 24.0.3, SVG Export Plug-In . SVG Version: 6.00 Build 0)  -->
<svg version="1.1" id="Layer_1" xmlns="http://www.w3.org/2000/svg" xmlns:xlink="http://www.w3.org/1999/xlink" x="0px" y="0px"
	 viewBox="0 0 16 15" style="enable-background:new 0 0 16 15;" xml:space="preserve">
<style type="text/css">
	.st0{fill:none;stroke:#D0BC7A;stroke-width:1.5;}
	.st1{display:none;fill:none;stroke:#D0BC7A;stroke-width:1.5;}
	.st2{display:none;fill-rule:evenodd;clip-rule:evenodd;fill:#D0BC7A;}
</style>
<path class="st0" d="M4.5,1.5H2c0,0-0.4,2.7,0,4.4C2.4,8,2.9,9.3,4.5,10.8c1.5,1.5,2.8,2,4.9,2.5c1.7,0.4,4.4,0,4.4,0v-2.5
	c0-0.9-0.6-1.6-1.4-1.9l-1.1-0.4c-0.3-0.1-0.6,0-0.8,0.2C9.9,9.6,8.7,9.7,7.9,8.9L6.5,7.3C5.8,6.5,5.9,5.4,6.6,4.8
	C6.8,4.6,6.9,4.3,6.8,4L6.4,2.8C6.1,2,5.4,1.5,4.5,1.5z"/>
<path class="st1" d="M10.8,10.6c1.1-0.9,1.8-2.3,1.8-3.8c0-2.8-2.4-5.1-5.3-5.1c-2.9,0-5.3,2.3-5.3,5.1c0,2.8,2.4,5.1,5.3,5.1
	C8.6,11.9,9.9,11.4,10.8,10.6z M10.8,10.6l3.1,3"/>
<path class="st1" d="M13.8,2.4C13.4,2,13,1.8,12.6,1.6c-0.4-0.2-0.9-0.3-1.4-0.3s-1,0.1-1.4,0.3C9.3,1.8,8.9,2,8.5,2.4L7.8,3.1
	L7.1,2.4C6.4,1.7,5.5,1.3,4.5,1.3c-1,0-1.9,0.4-2.6,1.1C1.2,3.1,0.8,4,0.8,4.9c0,1,0.4,1.9,1.1,2.6l0.7,0.7l5.2,5.1L13,8.2l0.7-0.7
	c0.3-0.3,0.6-0.7,0.8-1.2c0.2-0.4,0.3-0.9,0.3-1.4c0-0.5-0.1-0.9-0.3-1.4C14.4,3.1,14.1,2.7,13.8,2.4L13.8,2.4z"/>
<path class="st1" d="M4.8,5.3H2.3c-0.6,0-1,0.4-1,1V13c0,0.6,0.4,1,1,1h11c0.6,0,1-0.4,1-1V6.3c0-0.6-0.4-1-1-1h-2.5 M4.8,5.3v3
	 M4.8,5.3h6.1 M4.8,5.3V4c0-1.7,1.4-3,3-3l0,0c1.7,0,3,1.4,3,3v1.3 M10.9,8.3v-3"/>
<path class="st2" d="M5.1,4.9c0-1.5,1.2-2.7,2.7-2.7s2.7,1.2,2.7,2.7c0,1.5-1.2,2.7-2.7,2.7S5.1,6.4,5.1,4.9z M7.8,0.7
	c-2.3,0-4.2,1.9-4.2,4.2c0,2.3,1.9,4.2,4.2,4.2c2.3,0,4.2-1.9,4.2-4.2C12.1,2.6,10.2,0.7,7.8,0.7z M4.2,14.2c0-1.5,1.2-2.7,2.7-2.7
	h1.9c1.5,0,2.7,1.2,2.7,2.7H13c0-2.3-1.9-4.2-4.2-4.2H6.9c-2.3,0-4.2,1.9-4.2,4.2H4.2z"/>
</svg>
