<?xml version="1.0" encoding="utf-8"?>
<!-- Generator: Adobe Illustrator 24.0.3, SVG Export Plug-In . SVG Version: 6.00 Build 0)  -->
<svg version="1.1" xmlns="http://www.w3.org/2000/svg" xmlns:xlink="http://www.w3.org/1999/xlink" x="0px" y="0px"
	 viewBox="0 0 16 15" style="enable-background:new 0 0 16 15;" xml:space="preserve">
<style type="text/css">
	.st0{fill:#D0BC7A;}
	.st1{display:none;}
	.st2{display:inline;fill:#D0BC7A;}
</style>
<g id="Layer_1">
	<path class="st0" d="M14.2,4c0.1-0.3,0-0.5-0.4-0.5h-1.5c-0.4,0-0.5,0.2-0.6,0.4c0,0-0.7,1.8-1.8,3C9.5,7.2,9.3,7.4,9.1,7.4
		c-0.1,0-0.2-0.1-0.2-0.4V4c0-0.4-0.1-0.5-0.4-0.5H6.2C6,3.5,5.8,3.7,5.8,3.8c0,0.4,0.5,0.4,0.6,1.4v2.2C6.4,7.9,6.3,8,6.1,8
		C5.6,8,4.4,6.2,3.7,4.1C3.6,3.7,3.4,3.5,3.1,3.5H1.6c-0.4,0-0.5,0.2-0.5,0.4c0,0.4,0.5,2.3,2.3,4.8c1.2,1.7,2.9,2.7,4.5,2.7
		c0.9,0,1-0.2,1-0.6V9.6c0-0.4,0.1-0.5,0.4-0.5c0.2,0,0.6,0.1,1.5,0.9c1,1,1.2,1.4,1.7,1.4h1.5c0.4,0,0.6-0.2,0.5-0.6
		c-0.1-0.4-0.6-1-1.2-1.7c-0.3-0.4-0.9-0.8-1-1.1c-0.2-0.3-0.2-0.4,0-0.7C12.2,7.4,14,4.9,14.2,4z"/>
</g>
<g id="Layer_2" class="st1">
	<path class="st2" d="M7.8,0.5c-3.9,0-7,3.2-7,7c0,3.5,2.6,6.4,5.9,7V9.5H5v-2h1.8V6c0-1.8,1-2.7,2.6-2.7c0.8,0,1.6,0.1,1.6,0.1v1.7
		h-0.9c-0.9,0-1.1,0.5-1.1,1.1v1.3h1.9l-0.3,2H8.9v4.9c3.3-0.5,5.9-3.4,5.9-7C14.8,3.6,11.7,0.5,7.8,0.5z"/>
</g>
<g id="Layer_3" class="st1">
	<path class="st2" d="M13.8,5c0-0.5-0.1-1-0.3-1.5c-0.3-0.8-0.9-1.4-1.8-1.8c-0.5-0.2-1-0.3-1.5-0.3c-0.6,0-0.8,0-2.5,0
		s-1.8,0-2.5,0c-0.5,0-1,0.1-1.5,0.3C3.1,2.1,2.5,2.7,2.1,3.5C2,4,1.9,4.5,1.9,5c0,0.6,0,0.8,0,2.5s0,1.8,0,2.5c0,0.5,0.1,1,0.3,1.5
		c0.3,0.8,0.9,1.4,1.8,1.8c0.5,0.2,1,0.3,1.5,0.3c0.6,0,0.8,0,2.5,0s1.8,0,2.5,0c0.5,0,1-0.1,1.5-0.3c0.8-0.3,1.4-0.9,1.8-1.8
		c0.2-0.5,0.3-1,0.3-1.5c0-0.6,0-0.8,0-2.5C13.8,5.9,13.8,5.6,13.8,5z M7.8,10.5c-1.7,0-3.1-1.4-3.1-3.1s1.4-3.1,3.1-3.1
		c1.7,0,3.1,1.4,3.1,3.1S9.5,10.5,7.8,10.5z M11,5c-0.4,0-0.7-0.3-0.7-0.7c0-0.4,0.3-0.7,0.7-0.7c0.4,0,0.7,0.3,0.7,0.7
		C11.8,4.7,11.4,5,11,5z"/>
	<path class="st2" d="M7.8,9.5c1.1,0,2-0.9,2-2c0-1.1-0.9-2-2-2c-1.1,0-2,0.9-2,2C5.8,8.6,6.7,9.5,7.8,9.5z"/>
</g>
</svg>
